<svg width="147" height="52" viewBox="0 0 147 52" fill="none" xmlns="http://www.w3.org/2000/svg">
<g clip-path="url(#clip0_542_158)">
<path d="M62.1344 6.00622C62.0458 5.13955 61.2001 4.61149 60.3825 4.55506C59.7583 4.51475 59.0978 4.68002 58.4896 4.79692C54.7643 5.48219 51.0349 6.16343 47.3096 6.8487C43.5842 7.53397 39.8508 8.18699 36.1295 8.90048C35.6623 8.98916 35.1952 9.08188 34.728 9.17862C34.6112 9.02544 34.0675 8.8118 33.8581 8.79165C34.7965 8.57397 35.7348 8.3563 36.6732 8.13862C41.5746 7.00591 46.4759 5.86916 51.3773 4.73645C53.9709 4.13583 56.5686 3.55134 59.1582 2.94265C60.0845 2.72498 61.1598 2.24932 60.9101 1.08436C60.89 0.983583 60.8618 0.906994 60.8215 0.81025C60.2335 -0.475641 58.6145 0.0886996 57.5915 0.354746C54.6717 1.11258 51.7478 1.86637 48.8279 2.62017C45.9201 3.37397 43.0083 4.12374 40.1005 4.87754C37.1807 5.63134 34.2568 6.38916 31.3369 7.14699C28.4171 7.90482 25.4972 8.66265 22.5773 9.42451C22.3437 9.48498 21.5423 9.67847 21.3812 9.79537C21.1315 9.97676 20.9664 10.0816 20.8858 10.4161C20.7247 11.2143 21.3933 11.6093 22.09 11.4279C22.3236 11.3675 22.6136 11.3473 22.8592 11.307C23.1613 11.2506 23.4593 11.178 23.7574 11.1135C23.8903 11.0853 24.0191 11.0571 24.152 11.0248C24.1319 11.053 24.1158 11.0813 24.1037 11.1135C24.0755 11.1458 24.0473 11.182 24.0272 11.2102C23.9869 11.2627 23.9386 11.3271 23.9185 11.3957C23.858 11.4037 23.7936 11.4118 23.7332 11.4199C23.5761 11.436 23.4191 11.4642 23.262 11.4884C22.5854 11.5932 21.6349 11.6778 21.4295 12.484C21.3047 12.9678 21.6591 13.4071 22.1222 13.5402C22.384 13.6168 22.6458 13.6127 22.9156 13.5805C23.0566 13.5603 23.1976 13.5442 23.3345 13.524C23.27 13.907 23.258 14.302 23.2499 14.689C23.2419 15.209 23.262 15.733 23.3103 16.249C23.407 17.293 23.6164 18.329 23.9426 19.3247C24.0352 19.6068 24.144 19.885 24.2608 20.1591C24.3333 20.3324 24.4501 20.6871 24.6474 20.792C24.6152 20.9169 24.5789 21.0459 24.5427 21.1709C23.6728 24.1498 22.2068 27.0481 22.3598 30.2326C22.3598 30.2487 22.3598 30.2648 22.3598 30.2809C22.38 30.6155 22.4323 31.0509 22.4323 31.0509C22.5209 31.7321 22.682 32.4093 22.9036 33.0583C23.0767 33.0583 23.3063 33.0583 23.5761 33.0583C23.2942 32.2763 23.113 31.4661 23.0365 30.6397C22.8915 29.0636 23.1734 27.5116 23.6204 26.004C24.0554 24.5327 24.6232 23.1058 25.0743 21.6385C25.5536 20.0744 25.8476 18.4741 25.8315 16.8295C25.8113 14.9389 25.4046 13.0484 24.6434 11.3151C24.6877 11.2707 24.736 11.2304 24.7964 11.2022C24.9615 11.1296 25.1508 11.1578 25.2918 11.2627C25.324 11.2868 25.3522 11.303 25.3844 11.311C26.3752 14.3544 26.5363 17.6397 25.8476 20.7678C25.1428 23.9724 23.6728 27.0481 23.7453 30.3898C23.7654 31.2685 23.8983 32.1876 24.1883 33.0502C24.3735 33.0502 24.5669 33.0502 24.7723 33.0502C24.7723 33.0382 24.7642 33.0301 24.7602 33.018C24.4944 32.2682 24.3494 31.4822 24.3091 30.6881C24.2245 29.0999 24.5427 27.5197 24.9575 25.992C25.3925 24.3957 25.9442 22.8276 26.3268 21.2192C26.7054 19.631 26.8786 17.9985 26.8343 16.3659C26.786 14.564 26.4678 12.7702 25.8999 11.0571C25.9684 10.9724 26.0369 10.8918 26.1617 10.8676C26.3309 10.8354 26.4235 10.9321 26.5403 10.9966C27.4465 14.1448 27.6156 17.4986 27.0276 20.7234C26.4315 23.9724 24.9172 27.0561 24.9454 30.4099C24.9535 31.3008 25.0703 32.1957 25.3361 33.0462C25.5173 33.0462 25.7026 33.0462 25.8919 33.0462C25.8879 33.0301 25.8798 33.0099 25.8758 32.9938C25.6382 32.2521 25.5254 31.4782 25.4932 30.7042C25.4328 29.0837 25.7751 27.4955 26.202 25.9396C26.649 24.3312 27.1847 22.747 27.5109 21.1064C27.825 19.5101 27.9579 17.8735 27.9096 16.249C27.8572 14.431 27.5713 12.6171 27.0719 10.8716C27.1283 10.8031 27.1726 10.7225 27.2531 10.6782C27.374 10.6096 27.5431 10.6378 27.6357 10.7467C27.6599 10.7749 27.6881 10.7991 27.7163 10.8192C28.5298 13.9312 28.7272 17.2044 28.2922 20.3889C28.0707 22.0295 27.6519 23.6137 27.1686 25.1898C26.6974 26.7337 26.2262 28.2977 26.1657 29.9262C26.1335 30.8816 26.2503 31.845 26.5161 32.764C26.5443 32.8608 26.5725 32.9535 26.6047 33.0502C26.7779 33.0502 26.9551 33.0502 27.1323 33.0502C27.1082 32.9737 27.084 32.8971 27.0598 32.8205C26.8182 32.0102 26.6893 31.1637 26.6812 30.3172C26.6651 28.6968 27.1243 27.1206 27.5914 25.5808C28.0707 24.0087 28.5137 22.4447 28.7554 20.8161C28.997 19.1997 29.0816 17.5551 29.0091 15.9185C28.9326 14.1569 28.6668 12.4034 28.2237 10.6983C28.2922 10.6298 28.3647 10.5653 28.4573 10.5411C28.558 10.5169 28.6708 10.533 28.7513 10.6016C28.8037 10.6419 28.856 10.662 28.9084 10.6701C29.8709 13.5523 30.177 16.644 29.726 19.6512C29.2507 22.8034 27.8814 25.7582 27.5673 28.9427C27.4827 29.8093 27.4626 30.68 27.5673 31.5467C27.6196 31.982 27.7002 32.4174 27.817 32.8406C27.8371 32.9092 27.8572 32.9777 27.8774 33.0462C28.0949 33.0462 28.3123 33.0462 28.5298 33.0462C28.4976 32.9495 28.4694 32.8487 28.4412 32.7479C28.3446 32.3851 28.2721 32.0183 28.2237 31.6475C28.119 30.8775 28.1069 30.0955 28.1674 29.3216C28.2882 27.7495 28.6909 26.2137 29.1178 24.702C29.1984 24.4118 29.2829 24.1216 29.3675 23.8313C29.3272 24.3312 29.3031 24.8351 29.3031 25.3389C29.3031 25.5727 29.3111 25.8065 29.3232 26.0403C29.2507 26.1653 29.2064 26.2983 29.1581 26.4354C29.0775 26.6813 29.0091 26.9271 28.9487 27.1771C28.8278 27.685 28.7554 28.2009 28.7111 28.7209C28.6225 29.7811 28.6627 30.8453 28.852 31.8893C28.9044 32.1836 28.9728 32.4778 29.0574 32.764C29.0775 32.8326 29.1057 32.9333 29.146 33.0382C29.6212 33.0382 30.0965 33.0382 30.5596 33.0382C30.8053 32.893 31.051 32.756 31.3007 32.623C31.3732 32.752 31.4457 32.885 31.5182 33.014C31.5061 33.022 31.49 33.0301 31.4779 33.0382C31.7638 33.0382 32.0457 33.0382 32.3116 33.0382C32.1182 32.7116 31.9289 32.3851 31.7517 32.0506C31.2242 31.063 30.7932 30.027 30.471 28.9507C29.8428 26.8465 29.8226 24.6335 30.0723 22.4648C30.1086 22.1544 30.1529 21.8481 30.1891 21.5417C30.2294 21.2313 30.2374 20.9209 30.2817 20.6106C30.322 20.3123 30.3663 20.014 30.4026 19.7157C30.4388 19.4133 30.4992 19.0989 30.4589 18.7966C30.4589 18.7885 30.4549 18.7764 30.4469 18.7724C30.5556 17.6558 30.5677 16.5312 30.4791 15.4146C30.3462 13.7216 29.9958 12.0406 29.4159 10.4444C29.4642 10.396 29.5125 10.3476 29.5769 10.3154C29.7421 10.2307 29.8669 10.3154 30.02 10.3597C31.6511 13.3991 31.1597 17.0149 30.761 20.2921C30.5516 21.9932 30.3583 23.7104 30.4549 25.4276C30.5476 27.0884 30.8939 28.7371 31.4698 30.293C31.796 31.1718 32.1907 32.0264 32.6619 32.8366C32.7022 32.9051 32.7425 32.9696 32.7828 33.0382C33.0244 33.0382 33.2499 33.0382 33.4674 33.0382C33.407 32.9414 33.3506 32.8447 33.2902 32.7479C32.8714 32.0344 32.5008 31.2887 32.1907 30.5188C31.5745 28.987 31.1879 27.3706 31.0631 25.7259C30.8013 22.3157 31.7517 18.9659 31.7397 15.5597C31.7356 13.6813 31.4296 11.7867 30.5556 10.1098C30.5637 10.1017 30.5717 10.0937 30.5838 10.0856C30.6643 10.0211 30.7489 9.98079 30.8496 9.96064C31.051 9.92033 31.2121 9.98482 31.3852 10.0816C31.4134 10.0977 31.4376 10.1058 31.4658 10.1098C31.4859 10.138 31.5061 10.1622 31.5262 10.1904C33.0727 13.1169 32.5008 16.6199 32.082 19.76C31.8565 21.445 31.6833 23.138 31.792 24.8431C31.9008 26.5079 32.2391 28.1606 32.7787 29.7368C33.0848 30.6276 33.4594 31.4902 33.8943 32.3206C34.0192 32.5625 34.1521 32.8003 34.289 33.0341C34.5266 33.0341 34.732 33.0341 34.8931 33.0341C34.736 32.7681 34.583 32.498 34.438 32.2239C34.0594 31.5023 33.7332 30.7485 33.4513 29.9827C32.8794 28.4267 32.521 26.7982 32.384 25.1454C32.2431 23.4645 32.384 21.7997 32.6015 20.1309C32.823 18.4419 33.0969 16.7529 33.113 15.0478C33.1291 13.262 32.8552 11.444 32.0135 9.85583C32.0377 9.81955 32.0619 9.7873 32.0941 9.75909C32.1625 9.69862 32.2552 9.65428 32.3438 9.64219C32.4565 9.62606 32.5693 9.65025 32.67 9.69056C32.7666 9.73087 32.8432 9.7873 32.9277 9.81552C34.3293 12.5969 34.0433 15.862 33.6486 18.849C33.4392 20.4211 33.1976 21.9892 33.117 23.5733C33.0365 25.1616 33.1533 26.7417 33.5439 28.2856C33.9547 29.9101 34.6354 31.5386 35.6583 32.8809C35.7952 32.8044 35.9563 32.7036 36.1094 32.6109C35.3482 31.325 34.6877 29.9988 34.2729 28.5557C33.8379 27.04 33.6849 25.476 33.7372 23.9039C33.846 20.7436 34.6635 17.6478 34.587 14.4794C34.5468 12.7541 34.2326 11.0329 33.4513 9.48498C33.8178 9.2149 34.0514 9.50513 34.3212 9.67847C35.7952 12.2301 35.606 15.6081 35.1952 18.4016C34.7481 21.4329 34.0796 24.5327 34.7642 27.5802C34.9616 28.471 35.2918 29.3256 35.6543 30.16C35.8355 30.5712 36.0208 30.9783 36.2141 31.3854C36.3108 31.591 36.4034 31.7966 36.5081 31.9982C36.5524 32.0868 36.6048 32.1715 36.6611 32.2561L37.0357 31.7805L36.343 30.1963C36.343 30.1963 36.3309 30.1721 36.3269 30.16C35.9926 29.4022 35.6785 28.6323 35.465 27.8301C35.4328 27.7092 35.4046 27.5882 35.3764 27.4673C35.2515 26.9795 35.1831 26.3547 35.1831 26.3547C35.0623 25.3591 35.0703 24.3513 35.1468 23.3557C35.3804 20.272 36.2584 17.2447 36.1255 14.1327C36.0812 13.0927 35.9201 12.0527 35.606 11.0651C39.2266 10.5532 42.8472 10.0413 46.4638 9.52932C50.2294 8.99723 53.9951 8.46513 57.7647 7.93304C58.6709 7.80808 59.714 7.71537 60.5919 7.52591C61.3813 7.35661 62.2311 6.92529 62.1344 5.978V6.00622Z" fill="#010101"/>
<path d="M23.2299 12.8509C22.9439 12.8992 22.2512 13.0887 22.0982 12.7259C21.9733 12.4276 22.5573 12.2744 22.7385 12.2382C23.0124 12.1817 23.2862 12.1293 23.5641 12.0769C23.7695 12.0366 24.0152 12.0044 24.2166 11.9157C24.3132 12.1616 24.4059 12.4115 24.4904 12.6614C24.0716 12.7219 23.6487 12.7864 23.2299 12.8468V12.8509Z" fill="#EFCA98"/>
<path d="M24.8008 14.4149C24.8089 14.2375 24.821 14.0602 24.833 13.8828C25.0223 14.7011 25.1391 15.5355 25.1794 16.374C25.1995 16.8134 25.1955 17.2487 25.1713 17.68C25.1311 17.5107 25.0988 17.3374 25.0586 17.1641C24.9619 16.7086 24.8773 16.249 24.833 15.7854C24.7887 15.3299 24.7767 14.8664 24.7968 14.4109L24.8008 14.4149Z" fill="#FF5C7C"/>
<path d="M24.8132 17.9178C24.8575 18.0267 24.8978 18.1355 24.9542 18.2403C24.9985 18.3169 25.0509 18.3895 25.1032 18.458C25.0388 19.0425 24.9341 19.623 24.8012 20.1954C24.7851 20.155 24.7689 20.1147 24.7569 20.0825C24.6683 19.8366 24.5917 19.5867 24.5112 19.3408C24.3582 18.8611 24.2293 18.3733 24.1246 17.8816C23.9111 16.898 23.8145 15.8862 23.8185 14.8785C23.8185 14.3988 23.8668 13.9191 23.8749 13.4434C24.0762 13.4152 24.2736 13.383 24.4749 13.3547C24.4508 13.4474 24.4387 13.5482 24.4226 13.6409C24.3823 13.8788 24.3582 14.1166 24.342 14.3544C24.3098 14.8422 24.3139 15.3299 24.3541 15.8137C24.3944 16.2933 24.4709 16.769 24.5837 17.2366C24.6401 17.4664 24.7206 17.6961 24.8052 17.9178H24.8132Z" fill="#FF5C7C"/>
<path d="M27.8934 10.2226C27.8733 10.2105 27.8531 10.1985 27.833 10.1864C27.8773 10.1743 27.9256 10.1662 27.9699 10.1541C27.9458 10.1743 27.9176 10.1985 27.8974 10.2226H27.8934Z" fill="#FF5C7C"/>
<path d="M28.9936 10.0413C28.9251 10.009 28.8567 9.98081 28.7842 9.96468C28.901 9.93647 29.0218 9.90825 29.1386 9.88406C29.0822 9.9284 29.0339 9.98484 28.9936 10.0413Z" fill="#FF5C7C"/>
<path d="M30.1412 9.7349C30.0969 9.71475 30.0486 9.69862 30.0002 9.68653C30.0808 9.66638 30.1573 9.65025 30.2379 9.6301C30.2016 9.66234 30.1694 9.69459 30.1412 9.7349Z" fill="#FF5C7C"/>
<path d="M31.5588 9.49707C31.4702 9.44869 31.3735 9.41644 31.2769 9.39226C31.446 9.35195 31.6152 9.31567 31.7843 9.27536C31.6997 9.33986 31.6192 9.41241 31.5628 9.49707H31.5588Z" fill="#FF5C7C"/>
<path d="M32.9605 9.17459C32.9081 9.15444 32.8598 9.13428 32.8155 9.11816C32.7591 9.098 32.7027 9.08591 32.6423 9.07382C32.8236 9.02948 33.0088 8.98917 33.1901 8.94482C33.0974 9.00529 33.0169 9.07785 32.9605 9.17056V9.17459Z" fill="#FF5C7C"/>
<path d="M29.9922 8.9408C28.6189 9.25925 27.2415 9.5777 25.8682 9.89614C25.1916 10.0534 24.519 10.2106 23.8464 10.3758C23.3913 10.4847 22.9523 10.5814 22.5053 10.7144C22.2878 10.7789 21.4662 11.0047 21.5105 10.6096C21.5427 10.3194 22.1066 10.263 22.3361 10.2065C24.9137 9.60591 27.4872 8.89646 30.0486 8.23134C32.8033 7.51785 35.5621 6.80839 38.3168 6.09491C41.0837 5.37739 43.8545 4.6639 46.6213 3.94638C49.3761 3.23289 52.1308 2.5194 54.8896 1.80591C55.5903 1.62452 56.2911 1.44312 56.9959 1.26173C57.6242 1.10049 58.2565 0.902967 58.8968 0.778006C59.364 0.693355 60.1695 0.628859 60.2098 1.30607C60.25 1.98731 59.2714 2.13242 58.772 2.26948C58.0269 2.47506 57.1973 2.64436 56.4361 2.82173C52.5255 3.7287 48.6149 4.63165 44.7043 5.5346C39.803 6.66731 34.9016 7.80002 30.0003 8.93677L29.9922 8.9408Z" fill="#E8B485"/>
<path d="M60.9671 6.67939C60.516 6.90916 59.6058 6.98978 59.0782 7.06637C58.8648 7.09862 58.6513 7.12684 58.4379 7.15908C54.785 7.67505 51.1322 8.19102 47.4753 8.70699C43.8225 9.22296 40.1696 9.73893 36.5127 10.2549L35.3569 10.4161C35.2763 10.2146 35.1877 10.0211 35.0911 9.82358C36.843 9.54141 38.5828 9.19877 40.3267 8.88033C42.139 8.54575 43.9513 8.21521 45.7637 7.88064L56.6699 5.87722C57.6163 5.70389 58.5788 5.5104 59.5293 5.35319C60.1737 5.24839 61.1362 5.20405 61.39 5.978C61.5068 6.33676 61.2812 6.51815 60.9711 6.67536L60.9671 6.67939Z" fill="#E8B485"/>
<path d="M28.4697 10.5532C28.5704 10.529 28.6832 10.5451 28.7637 10.6137C28.8161 10.654 28.8684 10.6741 28.9208 10.6822C29.8833 13.5644 30.1894 16.6562 29.7384 19.6633C29.2631 22.8155 27.8938 25.7703 27.5797 28.9548C27.4951 29.8214 27.475 30.6921 27.5797 31.5588C27.6159 31.8813 27.6723 32.1997 27.7448 32.5141C27.487 32.5262 27.2373 32.5343 26.9957 32.5383C26.8064 31.8168 26.7057 31.0751 26.6977 30.3293C26.6816 28.7089 27.1407 27.1327 27.6079 25.5929C28.0871 24.0208 28.5301 22.4568 28.7718 20.8282C29.0134 19.2118 29.098 17.5672 29.0255 15.9306C28.949 14.169 28.6832 12.4155 28.2402 10.7104C28.3086 10.6419 28.3811 10.5774 28.4738 10.5532H28.4697Z" fill="#FF5C7C"/>
<path d="M28.3811 32.4819C28.3167 32.2078 28.2643 31.9336 28.2281 31.6595C28.1233 30.8896 28.1113 30.1076 28.1717 29.3336C28.2925 27.7616 28.6952 26.2257 29.1221 24.7141C29.2027 24.4239 29.2873 24.1336 29.3718 23.8434C29.3316 24.3433 29.3074 24.8471 29.3074 25.351C29.3074 25.5848 29.3154 25.8186 29.3275 26.0524C29.255 26.1774 29.2107 26.3104 29.1624 26.4474C29.0819 26.6933 29.0134 26.9392 28.953 27.1891C28.8322 27.6971 28.7597 28.213 28.7154 28.733C28.6268 29.7932 28.667 30.8574 28.8563 31.9014C28.8885 32.0828 28.9288 32.2642 28.9731 32.4456C28.7718 32.4577 28.5744 32.4698 28.3771 32.4778L28.3811 32.4819Z" fill="#FF5C7C"/>
<path d="M27.2576 10.6862C27.3785 10.6177 27.5476 10.6459 27.6402 10.7548C27.6644 10.783 27.6926 10.8072 27.7208 10.8273C28.5343 13.9393 28.7317 17.2124 28.2967 20.3969C28.0752 22.0376 27.6563 23.6217 27.1731 25.1979C26.7018 26.7417 26.2306 28.3058 26.1702 29.9343C26.138 30.8131 26.2387 31.6958 26.4602 32.5464C26.2105 32.5504 25.9729 32.5545 25.7433 32.5545C25.5903 31.9538 25.5138 31.3371 25.4896 30.7163C25.4292 29.0958 25.7715 27.5076 26.1984 25.9517C26.6455 24.3433 27.1811 22.7591 27.5073 21.1185C27.8215 19.5222 27.9544 17.8856 27.906 16.2611C27.8537 14.4431 27.5677 12.6292 27.0683 10.8838C27.1247 10.8152 27.169 10.7346 27.2496 10.6903L27.2576 10.6862Z" fill="#FF5C7C"/>
<path d="M26.1661 10.8797C26.3353 10.8474 26.4279 10.9442 26.5447 11.0087C27.4508 14.1569 27.62 17.5107 27.032 20.7355C26.4359 23.9845 24.9216 27.0682 24.9498 30.422C24.9579 31.1395 25.0344 31.8571 25.2036 32.5544C24.9941 32.5544 24.7968 32.5544 24.6156 32.5464C24.4464 31.9457 24.3497 31.325 24.3135 30.6961C24.2289 29.1079 24.5471 27.5278 24.9619 26C25.3969 24.4037 25.9486 22.8357 26.3312 21.2273C26.7098 19.6391 26.883 18.0065 26.8387 16.374C26.7904 14.5721 26.4722 12.7783 25.9043 11.0651C25.9728 10.9805 26.0413 10.8999 26.1661 10.8757V10.8797Z" fill="#FF5C7C"/>
<path d="M23.625 26.0081C24.0599 24.5368 24.6278 23.1098 25.0789 21.6425C25.5581 20.0785 25.8521 18.4782 25.836 16.8335C25.8159 14.943 25.4091 13.0524 24.6479 11.3191C24.6922 11.2747 24.7406 11.2344 24.801 11.2062C24.9661 11.1337 25.1554 11.1619 25.2964 11.2667C25.3286 11.2909 25.3568 11.307 25.389 11.3151C26.3797 14.3585 26.5408 17.6437 25.8521 20.7718C25.1473 23.9765 23.6773 27.0521 23.7498 30.3938C23.7659 31.0952 23.8545 31.8248 24.0398 32.5303C23.778 32.5222 23.5646 32.5141 23.4035 32.5061C23.2222 31.8974 23.1014 31.2685 23.041 30.6357C22.896 29.0596 23.1779 27.5076 23.625 26V26.0081Z" fill="#FF5C7C"/>
<path d="M31.8288 32.1836C31.8087 32.1433 31.7845 32.107 31.7644 32.0667C31.2368 31.0791 30.8058 30.0431 30.4836 28.9669C29.8554 26.8627 29.8352 24.6497 30.0849 22.481C30.1212 22.1706 30.1655 21.8642 30.2017 21.5579C30.242 21.2475 30.2501 20.9371 30.2944 20.6267C30.3346 20.3284 30.3789 20.0301 30.4152 19.7318C30.4514 19.4295 30.5118 19.1151 30.4716 18.8127C30.4716 18.8047 30.4675 18.7926 30.4595 18.7886C30.5682 17.672 30.5803 16.5473 30.4917 15.4307C30.3588 13.7377 30.0084 12.0568 29.4285 10.4605C29.4768 10.4121 29.5251 10.3638 29.5896 10.3315C29.7547 10.2469 29.8795 10.3315 30.0326 10.3759C31.6637 13.4152 31.1723 17.031 30.7736 20.3083C30.5642 22.0093 30.3709 23.7265 30.4675 25.4438C30.5602 27.1045 30.9065 28.7532 31.4824 30.3092C31.712 30.93 31.9778 31.5346 32.2799 32.1231C32.1309 32.1433 31.9778 32.1634 31.8288 32.1836Z" fill="#FF5C7C"/>
<path d="M32.1993 30.5349C31.5831 29.0031 31.1965 27.3867 31.0717 25.742C30.8099 22.3318 31.7603 18.982 31.7483 15.5758C31.7442 13.6974 31.4382 11.8028 30.5642 10.1259C30.5723 10.1179 30.5803 10.1098 30.5924 10.1017C30.6729 10.0372 30.7575 9.99693 30.8582 9.97677C31.0596 9.93646 31.2207 10.001 31.3939 10.0977C31.422 10.1138 31.4462 10.1219 31.4744 10.1259C31.4945 10.1541 31.5147 10.1783 31.5348 10.2065C33.0813 13.1331 32.5094 16.636 32.0906 19.7762C31.8651 21.4611 31.6919 23.1541 31.8006 24.8593C31.9094 26.5241 32.2477 28.1768 32.7873 29.7529C33.037 30.4865 33.3391 31.2 33.6814 31.8934C33.4196 31.9417 33.1538 31.9861 32.892 32.0264C32.6383 31.5386 32.4007 31.0428 32.1993 30.5309V30.5349Z" fill="#FF5C7C"/>
<path d="M34.2207 31.7966C33.9347 31.2121 33.685 30.6155 33.4595 30.0068C32.8876 28.4509 32.5292 26.8223 32.3922 25.1696C32.2513 23.4887 32.3922 21.8239 32.6097 20.155C32.8312 18.4661 33.1051 16.7771 33.1212 15.0719C33.1373 13.2862 32.8635 11.4682 32.0217 9.88001C32.0459 9.84373 32.0701 9.81148 32.1023 9.78327C32.1707 9.7228 32.2634 9.67846 32.352 9.66637C32.4647 9.65024 32.5775 9.67443 32.6782 9.71474C32.7749 9.75505 32.8514 9.81148 32.9359 9.8397C34.3375 12.6211 34.0515 15.8862 33.6569 18.8732C33.4474 20.4453 33.2058 22.0133 33.1252 23.5975C33.0447 25.1857 33.1615 26.7659 33.5521 28.3098C33.8421 29.4586 34.273 30.6075 34.857 31.6595C34.6476 31.7079 34.4341 31.7523 34.2207 31.7926V31.7966Z" fill="#FF5C7C"/>
<path d="M35.2037 18.4298C34.7567 21.4611 34.0881 24.561 34.7728 27.6084C34.9701 28.4993 35.3004 29.3538 35.6628 30.1882C35.8279 30.5712 36.0011 30.9501 36.1783 31.325C35.9488 31.3895 35.7192 31.454 35.4856 31.5104C34.9943 30.5752 34.5714 29.6078 34.2774 28.5799C33.8424 27.0642 33.6894 25.5002 33.7418 23.9281C33.8505 20.7678 34.6681 17.676 34.5915 14.5036C34.5513 12.7783 34.2371 11.0571 33.4558 9.50917C33.8223 9.2391 34.0559 9.52933 34.3257 9.70266C35.7998 12.2543 35.6105 15.6323 35.1997 18.4258L35.2037 18.4298Z" fill="#FF5C7C"/>
<path d="M30.9749 31.9981C30.995 32.0344 31.0152 32.0747 31.0313 32.111C30.8501 32.2037 30.6688 32.3045 30.4916 32.4053C30.4634 32.2118 30.4312 32.0143 30.3909 31.8208C30.3587 31.6676 30.3426 31.4902 30.2862 31.3371C30.254 31.1234 30.2258 30.9098 30.2057 30.6961C30.1855 30.5026 30.1735 30.3091 30.1614 30.1157C30.395 30.7566 30.6729 31.3814 30.9789 31.9941L30.9749 31.9981Z" fill="#FF5C7C"/>
<path d="M30.0607 32.2884C30.0848 32.365 30.105 32.4496 30.1412 32.5262C30.1493 32.5504 30.1533 32.5746 30.1613 32.6028C29.9962 32.7036 29.8311 32.8044 29.666 32.9132C29.6458 32.8165 29.6217 32.7238 29.6056 32.6593C29.5572 32.4255 29.5089 32.1917 29.4646 31.9538C29.376 31.458 29.3116 30.9582 29.2834 30.4543C29.2431 29.7207 29.2793 28.991 29.372 28.2695C29.4042 28.1929 29.4002 28.0962 29.4082 28.0075C29.4082 27.9913 29.4082 27.9752 29.4082 27.9631C29.4082 27.9591 29.4123 27.951 29.4163 27.947C29.4364 27.818 29.4566 27.689 29.4807 27.556C29.4928 27.6407 29.5089 27.7293 29.525 27.814C29.525 27.8462 29.529 27.8745 29.5331 27.9067C29.5492 28.0115 29.5774 28.1123 29.6015 28.2171C29.6257 28.3219 29.6378 28.4469 29.6861 28.5476C29.6861 28.5678 29.6861 28.5879 29.6901 28.6081C29.7022 28.6484 29.7103 28.6927 29.7183 28.7331C29.7304 28.7814 29.7425 28.8258 29.7546 28.8741C29.7264 28.9669 29.7224 29.0717 29.7103 29.1644C29.6901 29.3417 29.6861 29.5231 29.6821 29.7045C29.6781 30.0552 29.6942 30.4059 29.7304 30.7566C29.7667 31.0993 29.819 31.4379 29.9036 31.7724C29.9479 31.9458 29.9962 32.1191 30.0526 32.2924L30.0607 32.2884Z" fill="#FF5C7C"/>
<path d="M48.1112 31.5548L48.0951 30.9743C48.0749 30.3898 48.0347 29.4828 47.9622 28.4872C47.9622 28.4872 47.9299 28.072 47.9219 27.9793L47.8977 27.7213L47.8776 27.5036L47.8494 27.2335L47.8212 26.9836C47.8212 26.9836 47.8011 26.8103 47.793 26.7337C47.793 26.7337 47.7729 26.5603 47.7608 26.4878C47.7608 26.4878 47.7366 26.3185 47.7286 26.25C47.7286 26.25 47.7044 26.0766 47.6923 26.0121C47.6923 26.0121 47.6641 25.8428 47.6561 25.7824C47.6561 25.7824 47.6279 25.6211 47.6158 25.5606C47.6158 25.5606 47.5876 25.4034 47.5715 25.3389C47.5715 25.3349 47.5715 25.3228 47.5715 25.3188C47.5715 25.2986 47.5675 25.2785 47.5635 25.2543C47.499 24.9197 47.4587 24.7867 47.4305 24.7061C47.4225 24.6819 47.4104 24.6577 47.4024 24.6375C47.3339 24.4965 47.1406 24.2224 46.6251 23.9603L46.5848 23.9402C46.4197 23.8636 46.2304 23.791 46.021 23.7185C45.9525 23.6943 45.88 23.6822 45.8035 23.6822C45.7189 23.6822 45.6303 23.6983 45.5498 23.7346C45.5256 23.7427 45.5055 23.7467 45.4813 23.7467C45.445 23.7467 45.4128 23.7346 45.3806 23.7185C45.3484 23.6943 45.3121 23.6782 45.2839 23.662C45.2034 23.6177 45.1188 23.5895 45.0262 23.5613C44.7241 23.4645 44.3496 23.3436 44.12 22.6341C43.6851 21.312 43.0689 21.183 41.9211 21.0459L41.8164 21.0338C41.3774 20.9814 40.9182 20.921 40.5236 20.8403C40.4793 20.8323 40.435 20.8282 40.3907 20.8282C40.3544 20.8282 40.3182 20.8282 40.2779 20.8403C40.2658 20.8403 40.2578 20.8403 40.2457 20.8403C40.2054 20.8403 40.1611 20.8242 40.1289 20.8C40.0685 20.7476 40 20.7073 39.9315 20.6831C39.7302 20.6106 39.6214 20.538 39.5691 20.4937C39.561 20.4856 39.5489 20.4816 39.5409 20.4735L39.5167 20.4574C39.4925 20.4413 39.4724 20.4171 39.4603 20.3889C39.4362 20.3405 39.412 20.3002 39.3798 20.2639C39.0858 19.9011 38.7998 19.7358 38.1997 19.5746C38.1434 19.5585 38.083 19.5504 38.0266 19.5504C38.0145 19.5504 38.0064 19.5504 37.9823 19.5504C37.9823 19.5504 37.9742 19.5504 37.9702 19.5504C37.938 19.5504 37.9058 19.5424 37.8776 19.5262C37.8131 19.49 37.7487 19.4617 37.6842 19.4456L37.3983 19.3811C36.8304 19.2602 36.5445 19.1957 36.1377 18.9458C36.1095 18.9256 36.0773 18.9095 36.0451 18.8974C35.8598 18.8208 35.6625 18.7402 35.441 18.6596C35.3846 18.6394 35.3403 18.587 35.3282 18.5265C35.296 18.3814 35.2235 18.2524 35.1107 18.1557C34.9939 18.0549 34.8731 17.9501 34.7402 17.8332C33.9508 17.1358 32.9883 16.7529 32.0378 16.7529C31.8526 16.7529 31.6673 16.769 31.4861 16.7972C30.6282 16.9343 29.9114 17.3979 29.5167 18.071C29.271 18.4862 28.7877 18.6676 28.4253 18.7442C28.2158 18.7886 27.9863 18.8127 27.7487 18.8127C27.0841 18.8127 26.3954 18.6313 26.0008 18.3451C25.3121 17.8493 24.6476 17.7445 24.2126 17.7445C23.8783 17.7445 23.6528 17.805 23.6085 17.8171C22.36 18.1758 21.4941 19.1755 21.2927 20.4937C21.2807 20.5662 21.2283 20.6267 21.1558 20.6428C20.7289 20.7436 20.3101 20.9129 19.8993 21.1427C18.9005 21.707 18.2682 22.0335 17.8131 22.1383C17.6761 22.1706 17.5473 22.1867 17.4063 22.1867C17.1445 22.1867 16.8425 22.1343 16.4236 22.0577C16.4236 22.0577 16.1377 22.0053 16.037 21.9892C15.888 21.965 15.739 21.9529 15.594 21.9529C14.9335 21.9529 14.2971 22.2028 13.7414 22.6744C13.4232 22.9486 13.1453 23.2872 12.9117 23.6822C12.8795 23.7386 12.8191 23.7709 12.7547 23.7709C12.7466 23.7709 12.7426 23.7709 12.7345 23.7709C12.7104 23.7709 12.6862 23.7669 12.662 23.7669C12.5774 23.7669 12.4969 23.783 12.4204 23.8112C12.3076 23.8555 12.1989 23.9039 12.0781 23.9603L12.0579 23.9684C11.5585 24.2264 11.3692 24.4965 11.3008 24.6335C11.2887 24.6577 11.2766 24.6819 11.2685 24.7061C11.2404 24.7827 11.2001 24.9157 11.1356 25.2543C11.1316 25.2744 11.1276 25.2946 11.1276 25.3188C11.1276 25.3269 11.1276 25.3309 11.1276 25.3389C11.1155 25.4075 11.0994 25.48 11.0873 25.5526C11.0752 25.6251 11.047 25.7743 11.047 25.7743C10.9625 26.2701 10.894 26.8224 10.8376 27.3786C9.77035 26.0041 7.25726 23.65 2.34786 23.1501C2.32369 23.1501 2.30356 23.1501 2.27939 23.1501C2.07802 23.1501 1.88471 23.2428 1.75583 23.4C1.61487 23.5774 1.57057 23.8152 1.63904 24.0289C1.65112 24.0611 2.68616 27.3182 1.08326 29.0717C0.877859 29.2934 0.849668 29.6279 1.01076 29.8819C1.13561 30.0794 1.35309 30.1923 1.57863 30.1923C1.64306 30.1923 1.71153 30.1842 1.77597 30.1641C1.79208 30.16 3.46748 29.6481 5.87183 29.6481C6.32693 29.6481 6.78202 29.6682 7.22907 29.7045C5.23953 30.0431 2.69824 30.9098 0.285832 32.9858C0.104599 33.1389 0.0200235 33.3768 0.0643249 33.6106C0.104599 33.8444 0.265695 34.0379 0.487202 34.1225C0.515393 34.1346 3.44734 35.2794 3.82591 37.952C3.86619 38.2422 4.0877 38.472 4.37767 38.5203C4.41391 38.5284 4.45419 38.5284 4.49043 38.5284C4.73611 38.5284 4.96969 38.3913 5.08649 38.1656C5.10663 38.1253 7.14046 34.2636 10.5839 32.2199C10.6403 35.9848 11.5666 38.5002 11.6793 38.7944C12.9117 42.2248 14.7764 44.2806 16.1256 45.4013C16.1296 45.4053 16.1377 45.4093 16.1417 45.4134C16.1538 45.4255 17.213 46.5058 19.7744 47.4571C19.8469 47.4853 19.8912 47.5498 19.8912 47.6264V50.045C19.8912 50.565 20.2255 51.0205 20.7168 51.1817C21.7277 51.5042 24.1884 52.0484 29.3395 52.0484C34.4905 52.0484 36.9513 51.5042 37.9621 51.1817C38.4575 51.0245 38.7918 50.569 38.7918 50.045V47.6264C38.7918 47.5498 38.8401 47.4813 38.9086 47.4571C41.4579 46.5098 42.5171 45.4376 42.5413 45.4134C42.5453 45.4093 42.5534 45.4013 42.5574 45.3972C43.9025 44.2766 45.7672 42.2208 47.0036 38.7864C47.1204 38.48 48.1555 35.6906 48.0991 31.5507L48.1112 31.5548Z" fill="#010101"/>
<path d="M16.8266 30.5551C16.8266 30.5551 16.2587 30.8453 15.8882 31.0307C15.8882 31.0307 15.7553 31.0992 15.6788 31.329C15.6023 31.5588 14.8934 33.3324 15.5741 34.9892C16.2547 36.6459 18.4416 37.9842 20.7009 38.0326C22.9603 38.0809 25.264 36.4685 26.0091 36.0695C26.7581 35.6704 29.3478 34.3079 29.3478 34.3079C29.3478 34.3079 24.0397 31.2564 20.1009 30.1842C20.1009 30.1842 18.655 29.6682 16.8226 30.5591L16.8266 30.5551Z" fill="#E8B485"/>
<path d="M43.0251 31.329C42.9485 31.0992 42.8156 31.0307 42.8156 31.0307C42.4451 30.8453 41.8773 30.5551 41.8773 30.5551C40.0448 29.6642 38.599 30.1802 38.599 30.1802C34.6602 31.2524 29.3521 34.3039 29.3521 34.3039C29.3521 34.3039 31.9457 35.6664 32.6908 36.0654C33.4399 36.4645 35.7395 38.0769 37.9989 38.0285C40.2582 37.9802 42.4451 36.6378 43.1258 34.9851C43.8064 33.3284 43.0976 31.5547 43.021 31.325L43.0251 31.329Z" fill="#E8B485"/>
<path d="M47.4469 31.5669C47.4469 31.5669 47.3704 27.5802 46.9072 25.3873C46.9072 25.3873 46.9072 25.3873 46.9072 25.3833C46.875 25.218 46.8347 25.0286 46.7985 24.9318C46.7985 24.9318 46.7099 24.7544 46.3111 24.5529C46.3111 24.5529 46.3031 24.5529 46.2991 24.5489C46.1541 24.4803 45.989 24.4158 45.7997 24.3513C45.9004 24.5448 45.9809 24.7867 46.0252 25.0971C46.1702 25.1696 46.2789 25.3027 46.3192 25.472L46.3353 25.5365C44.6962 26.0726 39.3599 27.5197 29.3477 27.5197C19.3356 27.5197 14.0195 26.0807 12.3723 25.5405C12.4327 25.1576 12.5253 24.7867 12.6582 24.44C12.5495 24.4803 12.4528 24.5247 12.3642 24.569C11.9816 24.7665 11.897 24.9358 11.897 24.9358C11.8648 25.0326 11.8205 25.222 11.7883 25.3873C11.7883 25.3873 11.7883 25.3873 11.7883 25.3913C11.3292 27.5842 11.2486 31.5709 11.2486 31.5709C11.1963 35.751 12.3038 38.5607 12.3038 38.5607C14.4867 44.6394 18.6953 46.2558 18.6953 46.2558C18.6953 46.2558 15.1633 43.6679 13.6771 40.9027C12.187 38.1374 11.7561 35.9365 12.0742 34.2797C12.3924 32.623 12.8233 31.6838 15.6022 30.3858C17.8093 29.3579 19.7988 29.2168 20.5278 29.2047C21.007 29.2047 21.9816 29.2329 21.9816 29.2329L24.9297 29.6924L29.3437 33.6831L33.7577 29.6924L36.7058 29.2329C36.7058 29.2329 37.6804 29.2047 38.1597 29.2047C38.8887 29.2168 40.8782 29.3579 43.0852 30.3858C45.8641 31.6838 46.295 32.623 46.6132 34.2797C46.9314 35.9365 46.5004 38.1374 45.0103 40.9027C43.5202 43.6679 39.9922 46.2558 39.9922 46.2558C39.9922 46.2558 44.2048 44.6434 46.3836 38.5607C46.3836 38.5607 47.4912 35.747 47.4388 31.5709L47.4469 31.5669Z" fill="#324253"/>
<path d="M45.9045 34.3724C45.687 33.4493 45.3004 32.4698 43.8465 31.5789C44.3378 33.2639 44.0921 34.4974 43.782 35.2592C43.4035 36.1823 42.6342 37.0047 41.6677 37.6214C38.9612 39.6329 35.546 38.6412 33.343 37.2949C32.9121 37.0329 32.5053 36.791 32.1227 36.5693C31.4058 36.1904 29.9922 35.4447 29.3519 35.1061C28.7115 35.4447 27.2979 36.1864 26.581 36.5653C26.2024 36.787 25.7917 37.0288 25.3607 37.2909C23.1537 38.6372 19.7425 39.6288 17.0361 37.6174C16.0695 37.0047 15.3003 36.1783 14.9217 35.2552C14.6076 34.4974 14.3619 33.2599 14.8573 31.5749C13.4034 32.4698 13.0208 33.4453 12.7993 34.3684C12.5496 35.4164 13.1738 40.6567 18.2081 44.724C18.9209 45.3005 19.6539 45.7923 20.3869 46.2155C20.4997 46.28 20.5681 46.3969 20.5681 46.5259V50.045C20.5681 50.2747 20.7131 50.4763 20.9306 50.5448C21.7643 50.8109 24.1445 51.3792 29.3478 51.3792C34.5512 51.3792 36.9355 50.8109 37.7651 50.5448C37.9826 50.4763 38.1276 50.2747 38.1276 50.045V46.5259C38.1276 46.3969 38.196 46.28 38.3088 46.2155C39.0458 45.7923 39.7788 45.3005 40.4876 44.724C45.5219 40.6567 46.1461 35.4164 45.8964 34.3684L45.9045 34.3724Z" fill="#324253"/>
<path d="M43.9353 37.0853C45.0952 34.711 44.4145 32.635 43.903 31.6152C43.8829 31.6031 43.8668 31.591 43.8467 31.5789C44.338 33.2639 44.0923 34.4974 43.7822 35.2592C43.4036 36.1823 42.6344 37.0047 41.6678 37.6214C38.9614 39.6329 35.5462 38.6412 33.3432 37.2949C32.9123 37.0329 32.5055 36.791 32.1229 36.5693C31.406 36.1904 29.9924 35.4447 29.3521 35.1061C28.7117 35.4447 27.2981 36.1864 26.5812 36.5653C26.2026 36.787 25.7918 37.0288 25.3609 37.2909C23.1539 38.6372 19.7427 39.6288 17.0363 37.6174C16.0697 37.0047 15.3005 36.1783 14.9219 35.2552C14.6078 34.4974 14.3621 33.2599 14.8575 31.5749C14.8373 31.587 14.8212 31.5991 14.8011 31.6112C14.2936 32.635 13.609 34.711 14.7729 37.0893C14.8252 37.1861 16.0778 39.4797 20.2381 39.4797C20.4354 39.4797 20.6368 39.4757 20.8422 39.4636C20.8865 39.4636 25.2361 39.1532 29.3521 36.2509C33.4721 39.1532 37.8217 39.4595 37.866 39.4636C38.0673 39.4757 38.2687 39.4797 38.4661 39.4797C42.6223 39.4797 43.8789 37.1861 43.9312 37.0853H43.9353Z" fill="#232C38"/>
<path d="M43.955 25.5405C43.8624 25.4075 43.7375 25.2906 43.5805 25.1938C43.0529 24.8633 42.5535 24.0893 42.4206 23.7507C42.2313 23.263 41.6997 22.9727 41.007 22.9727C40.8781 22.9727 40.7452 22.9808 40.6042 23.001C40.3787 23.0332 40.1371 23.0453 39.8793 23.0453C39.3477 23.0453 38.8161 22.9768 38.3972 22.8558C38.5221 22.7913 38.6348 22.6986 38.7355 22.5737C38.8362 22.4527 38.9852 22.3116 39.1745 22.1706C39.6699 22.4245 40.129 22.4366 40.6163 22.4447C40.9627 22.4527 41.3533 22.4608 41.8205 22.5535C42.7065 22.7228 42.8394 23.1098 42.9925 23.5572C43.0247 23.654 43.0609 23.7547 43.1052 23.8555C43.3388 24.4037 43.657 24.5972 44.1 24.8633L44.1161 24.8754C44.1806 24.9157 44.2531 24.956 44.3255 25.0044C44.4423 25.0769 44.5309 25.2099 44.5873 25.3913C44.39 25.4397 44.1806 25.4921 43.955 25.5405Z" fill="#FF5C7C"/>
<path d="M39.239 26.3467C39.1544 26.3306 39.0779 26.3064 39.0054 26.2782C38.2805 25.9839 37.5998 25.738 36.5809 25.738C36.5487 25.738 36.44 25.738 36.44 25.738V25.7783C36.2064 25.6977 35.9808 25.6372 35.7795 25.5848C35.4734 25.5042 35.1633 25.4236 34.8733 25.2825C35.0586 25.2382 35.1915 25.1777 35.1915 25.1777C35.4452 25.085 35.7352 25.0406 36.0533 25.0406C36.5608 25.0406 37.1327 25.1656 37.628 25.3793C37.9784 25.5324 38.4255 25.6171 38.8846 25.6171C39.3437 25.6171 39.7827 25.5284 40.0928 25.3712C40.4392 25.1938 40.9587 25.1455 41.1923 25.1334L41.5104 25.6735C41.293 25.7582 41.011 25.8831 40.8258 26.0121C40.7976 26.0323 40.7613 26.0524 40.7211 26.0766C40.6486 26.1129 40.564 26.1492 40.4673 26.1855C40.0847 26.2419 39.6699 26.2943 39.243 26.3467H39.239Z" fill="#FF5C7C"/>
<path d="M28.0912 26.6288C27.7972 26.5563 27.4952 26.516 27.1851 26.5039C27.3663 26.3628 27.6281 26.1935 27.9422 26.0806C28.8846 25.742 29.6216 25.2462 30.0163 24.6778C30.121 24.5287 30.2137 24.3634 30.3143 24.1861C30.6043 23.6781 30.9305 23.1057 31.5185 22.9243C31.8367 22.8276 32.1065 22.7833 32.3401 22.7833C32.61 22.7833 32.8073 22.8437 33.0167 22.9042L33.0892 22.9243C33.3268 22.9929 33.8947 23.1057 34.4142 23.1057C34.6156 23.1057 34.7888 23.0896 34.9257 23.0533C35.0345 23.1461 35.1513 23.2388 35.2842 23.3315C35.5016 23.4847 35.7352 23.6298 35.9849 23.7588C35.6869 23.7588 35.4372 23.7346 35.1754 23.6862C34.7686 23.6096 34.5713 23.5411 34.3417 23.4645C34.1122 23.3879 33.8504 23.2992 33.351 23.1864C33.198 23.1501 33.0369 23.134 32.8798 23.134C31.9656 23.134 31.0957 23.7225 30.6647 24.6295C30.2539 25.4961 29.7263 25.8267 29.3639 26.004C28.9853 26.1895 28.1315 26.6047 28.1315 26.6047L28.0953 26.6248L28.0912 26.6288Z" fill="#FF5C7C"/>
<path d="M38.8682 25.1132C38.4816 25.1132 38.111 25.0447 37.8251 24.9197C37.2733 24.6779 36.6249 24.5408 36.049 24.5408C35.6704 24.5408 35.32 24.5972 35.0059 24.7101C34.9213 24.7464 34.6636 24.8351 34.4421 24.8351C34.4058 24.8351 34.3696 24.8351 34.3374 24.827L34.2971 24.8189L34.285 24.8794C33.8823 24.5892 33.4513 24.5287 33.101 24.4803C32.6136 24.4118 32.2592 24.3634 32.0337 23.8555C32.2995 23.7104 32.5935 23.6338 32.8835 23.6338C33.0043 23.6338 33.1251 23.6459 33.2419 23.6741C33.7171 23.7789 33.9507 23.8596 34.1803 23.9361C34.4179 24.0168 34.6434 24.0934 35.0824 24.178C35.3805 24.2344 35.6704 24.2627 36.0208 24.2627C36.1658 24.2627 36.3068 24.2586 36.4437 24.2546C36.5887 24.2506 36.7296 24.2465 36.8786 24.2465C37.0277 24.2465 37.1646 24.2506 37.2935 24.2586C37.6922 24.3594 38.0869 24.4118 38.4574 24.4118C38.5178 24.4118 38.5782 24.4118 38.6386 24.4078H38.7433C38.9487 24.3916 39.1783 24.3796 39.4038 24.3796C39.8186 24.3796 40.3382 24.4158 40.745 24.6698C40.4751 24.7101 40.1368 24.7827 39.863 24.9237C39.6334 25.0406 39.2629 25.1132 38.8722 25.1132H38.8682Z" fill="#FF5C7C"/>
<path d="M25.0223 26.8022C23.1335 26.7135 21.3171 26.5644 19.6296 26.3628C19.7867 26.2782 19.9518 26.1854 20.129 26.0847C20.7493 25.734 21.3936 25.5566 22.0421 25.5566C23.0006 25.5566 23.9873 25.9234 25.0545 26.6813C25.0425 26.7296 25.0304 26.7699 25.0223 26.8022Z" fill="#FF5C7C"/>
<path d="M27.9216 24.299C27.5108 23.8273 27.1 23.396 26.6973 23.0171C26.7214 23.0171 26.7496 23.0171 26.7738 23.0171C26.9309 23.0171 27.096 23.0534 27.2732 23.13C27.5632 23.2509 27.8853 23.3154 28.2317 23.3154C28.5176 23.3154 28.8197 23.271 29.1258 23.1864C28.8841 23.5895 28.5781 23.9281 27.9216 24.303V24.299Z" fill="#FF5C7C"/>
<path d="M37.7047 26.516C37.6724 26.4918 37.6402 26.4676 37.612 26.4394C37.5597 26.395 37.5073 26.3507 37.4509 26.3104C37.6604 26.3467 37.8738 26.4031 38.1034 26.4757C37.9705 26.4878 37.8376 26.5039 37.7047 26.516Z" fill="#FF5C7C"/>
<path d="M34.0358 21.9771C33.7861 21.8965 33.4519 21.7957 32.9565 21.6546C32.4893 21.5216 32.0544 21.449 31.6677 21.441C31.8288 21.2394 32.0987 21.0258 32.5296 21.0217C32.586 21.0217 32.6424 21.0217 32.6947 21.0217C33.3512 21.0217 33.919 21.0943 34.5433 21.4289C34.3097 21.6304 34.1405 21.832 34.0358 21.9811V21.9771Z" fill="#FF5C7C"/>
<path d="M28.2279 22.8115C27.95 22.8115 27.6963 22.7631 27.4667 22.6664C27.2331 22.5656 26.9995 22.5172 26.778 22.5172C26.5565 22.5172 26.3672 22.5737 26.2545 22.622C26.037 22.4366 25.8276 22.2673 25.6262 22.1182C25.5175 22.0375 25.4127 21.961 25.304 21.8884C24.9415 21.6425 24.5791 21.4329 24.2287 21.2717C24.1441 21.2313 24.0595 21.1951 23.979 21.1628C23.9508 21.1507 23.9226 21.1427 23.8984 21.1306C24.0918 21.0661 24.2931 21.0338 24.5025 21.0338C24.8086 21.0338 25.1187 21.1024 25.4329 21.2394C25.7067 21.3563 25.9484 21.4692 26.1578 21.5659C26.8868 21.9045 27.362 22.1222 28.0346 22.1222C28.1272 22.1222 28.2198 22.1182 28.3205 22.1101C29.2307 22.0335 29.9275 21.6667 30.447 20.9855C30.7853 20.542 31.4256 20.0099 32.5614 20.0099C33.4031 20.0099 34.3938 20.3002 35.5094 20.8766C35.3322 20.929 35.159 21.0056 34.9899 21.1064C34.2005 20.6186 33.4998 20.5179 32.6902 20.5179C32.6339 20.5179 32.5815 20.5179 32.5251 20.5179C31.5505 20.534 31.1478 21.2878 31.0551 21.4893C30.4389 21.6062 29.9436 21.9368 29.5408 22.4971C29.0817 22.7067 28.6427 22.8115 28.2279 22.8115Z" fill="#FF5C7C"/>
<path d="M18.8481 26.262C17.6238 26.0967 16.4679 25.9033 15.4087 25.6816C15.4329 25.6816 15.457 25.6816 15.4812 25.6816C15.5859 25.6816 15.6906 25.6896 15.7953 25.7098C15.9282 25.734 16.0531 25.7541 16.1699 25.7743C16.633 25.8549 16.9592 25.9154 17.2855 25.9154C17.4828 25.9154 17.66 25.8952 17.8533 25.8509C18.397 25.7219 19.0454 25.3913 20.1248 24.7826C20.745 24.4319 21.3934 24.2546 22.0458 24.2546C23.1574 24.2546 24.3092 24.7464 25.5618 25.7622C25.4329 25.9194 25.3201 26.0847 25.2315 26.258C24.3495 25.6493 23.4876 25.2825 22.662 25.1616C22.4566 25.1293 22.2472 25.1172 22.0418 25.1172C21.3088 25.1172 20.5879 25.3147 19.9033 25.6977C19.4441 25.9557 19.1179 26.133 18.8481 26.2741V26.262Z" fill="#FF5C7C"/>
<path d="M25.5662 26.7296C25.7071 26.3427 26.0736 25.7058 27.0402 25.2865C28.5625 24.6295 29.1747 24.1498 29.6701 23.2348C30.0084 22.6059 30.4635 21.9368 31.6032 21.9368C31.9576 21.9368 32.3644 22.0013 32.8155 22.1343C33.6451 22.3721 34.064 22.5051 34.3056 22.6099C33.9512 22.5979 33.5082 22.5334 33.2303 22.4487L33.1618 22.4286C32.9403 22.36 32.6866 22.2875 32.3443 22.2875C32.0543 22.2875 31.7361 22.3399 31.3737 22.4527C30.5924 22.6906 30.1977 23.3839 29.8795 23.9442C29.7909 24.1014 29.6942 24.2667 29.6056 24.3997C29.2714 24.8794 28.6189 25.3148 27.7732 25.6171C26.9999 25.8952 26.5086 26.4475 26.4159 26.5563C26.1421 26.5926 25.8803 26.649 25.6105 26.7256C25.5944 26.7296 25.5823 26.7337 25.5662 26.7377V26.7296Z" fill="#FF5C7C"/>
<path d="M42.2551 25.8872C42.1544 25.7864 42.0899 25.6735 41.8241 25.218L41.6228 24.8794C41.0992 23.9926 40.1648 23.8797 39.4037 23.8797C39.1661 23.8797 38.9365 23.8918 38.715 23.9039H38.6103C38.5539 23.912 38.5015 23.912 38.4451 23.912C37.8853 23.912 37.2691 23.7789 36.665 23.529C36.7013 23.3396 36.802 23.0574 37.0919 23.0211C37.2369 23.005 37.3698 23.0009 37.4987 22.9969C38.0102 23.3396 38.9002 23.5451 39.887 23.5451C40.1648 23.5451 40.4307 23.529 40.6763 23.4927C40.7891 23.4766 40.9019 23.4685 41.0025 23.4685C41.5744 23.4685 41.8684 23.7064 41.957 23.9281C42.1061 24.311 42.6578 25.1978 43.3183 25.613C43.3425 25.6292 43.3666 25.6453 43.3908 25.6614C43.0283 25.738 42.6457 25.8146 42.2591 25.8831L42.2551 25.8872Z" fill="#FF5C7C"/>
<path d="M35.2681 22.6946C35.1916 22.6301 35.1312 22.5777 35.0789 22.5293C34.9178 22.3802 34.7969 22.2794 34.5271 22.1625C34.7446 21.9005 35.1634 21.4812 35.7313 21.3402C36.6858 21.1023 37.4107 20.8847 38.039 20.2639C38.482 20.3848 38.6391 20.4816 38.8042 20.6791C38.6149 20.8282 38.3934 21.0137 38.0027 21.3402C37.7369 21.5619 37.4429 21.578 37.0684 21.6022C36.7905 21.6183 36.4764 21.6385 36.1461 21.7513C35.6266 21.9287 35.3849 22.3519 35.2681 22.7026V22.6946Z" fill="#FF5C7C"/>
<path d="M28.0428 21.6223C27.471 21.6223 27.0602 21.4329 26.3755 21.1144C26.1621 21.0137 25.9164 20.9008 25.6345 20.7799C25.2559 20.6146 24.8773 20.534 24.5028 20.534C23.7899 20.534 23.3187 20.8403 23.214 20.9169C23.1455 20.9008 23.0811 20.8847 23.0126 20.8726C22.92 20.8565 22.8233 20.8403 22.7146 20.8242C22.924 20.5541 23.3993 20.0341 24.0396 19.8447C24.2249 19.7882 24.4142 19.76 24.5994 19.76C25.1471 19.76 25.5459 20.0059 25.715 20.1107L25.7271 20.1188C25.9285 20.2397 26.9917 20.8565 28.1999 20.8565C28.3127 20.8565 28.4254 20.8524 28.5302 20.8403C29.6417 20.7315 30.0847 20.143 30.3787 19.752C30.4472 19.6592 30.5076 19.5786 30.568 19.5182L30.6123 19.4738C30.8419 19.2279 31.297 18.7361 32.477 18.7361C33.355 18.7361 34.4585 19.0143 35.7634 19.5585C36.2708 19.8729 36.6373 19.9495 37.2414 20.0825L37.4347 20.1228C37.1206 20.3606 36.746 20.538 36.2024 20.6952C34.8169 19.9092 33.5845 19.5101 32.5414 19.5101C31.2124 19.5101 30.4472 20.151 30.0404 20.6872C29.6055 21.2555 29.0457 21.5498 28.2724 21.6143C28.1919 21.6223 28.1113 21.6264 28.0348 21.6264L28.0428 21.6223Z" fill="#FF5C7C"/>
<path d="M29.3518 26.903C29.1867 26.903 29.0256 26.903 28.8645 26.903C28.8323 26.8869 28.796 26.8748 28.7598 26.8586L29.4082 26.5442C29.5008 26.6893 29.6095 26.8103 29.7384 26.903C29.6095 26.903 29.4807 26.903 29.3478 26.903H29.3518Z" fill="#FF5C7C"/>
<path d="M45.0704 25.2664C44.9778 24.952 44.8167 24.7222 44.5871 24.5771C44.5106 24.5287 44.4381 24.4844 44.3697 24.444L44.3576 24.436C43.9548 24.1941 43.7333 24.0611 43.5642 23.662C43.5279 23.5814 43.4997 23.4927 43.4675 23.4C43.2943 22.9002 43.0849 22.2875 41.917 22.0617C41.4055 21.965 40.9947 21.9529 40.6282 21.9448C40.2617 21.9368 39.9677 21.9287 39.6777 21.84C39.9556 21.6828 40.2134 21.5699 40.3986 21.5337C40.8135 21.6183 41.2887 21.6788 41.7398 21.7352L41.8485 21.7473C42.8674 21.8682 43.1453 21.9005 43.4554 22.8518C43.8018 23.9039 44.4623 24.1175 44.8207 24.2304C44.8771 24.2506 44.9375 24.2667 44.9617 24.2828C45.0744 24.3433 45.3483 24.5529 45.4369 25.1696C45.3241 25.2019 45.2033 25.2341 45.0785 25.2704L45.0704 25.2664Z" fill="#FF5C7C"/>
<path d="M13.0814 25.1092C13.2908 24.3191 13.6775 23.662 14.201 23.2146C14.6239 22.8518 15.1032 22.6623 15.5905 22.6623C15.6992 22.6623 15.808 22.6704 15.9167 22.6905C16.0335 22.7107 16.1382 22.7309 16.2429 22.747L16.2993 22.755C16.7544 22.8357 17.0806 22.8921 17.4068 22.8921C17.6042 22.8921 17.7814 22.8719 17.9747 22.8276C18.5184 22.6986 19.1668 22.3681 20.2462 21.7594C20.7093 21.4974 21.1805 21.3321 21.6557 21.2676C21.8168 21.2434 21.982 21.2313 22.1431 21.2313C22.578 21.2313 23.021 21.3079 23.4681 21.4571C23.5768 21.4933 23.6896 21.5336 23.8024 21.582C23.8507 21.6022 23.899 21.6223 23.9473 21.6465C24.0682 21.6989 24.193 21.7594 24.3219 21.8279C24.4427 21.8924 24.5635 21.9609 24.6884 22.0375C24.7689 22.0859 24.8495 22.1383 24.93 22.1907C25.0388 22.2592 25.1435 22.3358 25.2522 22.4124C25.9771 22.9364 26.7343 23.6459 27.5076 24.5247C27.3263 24.6133 27.125 24.7101 26.8954 24.8068C25.7154 23.654 24.5595 22.9042 23.4681 22.5736C23.0291 22.4406 22.5901 22.3761 22.1632 22.3761C21.4302 22.3761 20.7093 22.5736 20.0247 22.9566C18.5708 23.7749 18.019 24.0329 17.3988 24.0329C17.1088 24.0329 16.8027 23.9805 16.3799 23.9039C16.259 23.8837 16.1342 23.8595 15.9932 23.8354C15.8644 23.8152 15.7314 23.8031 15.5985 23.8031C15.0025 23.8031 14.4225 24.0288 13.9191 24.4521C13.6855 24.6496 13.4721 24.8915 13.2788 25.1736C13.2063 25.1535 13.1418 25.1333 13.0774 25.1172L13.0814 25.1092Z" fill="#FF5C7C"/>
<path d="M36.1986 23.3113C36.0254 23.2226 35.8603 23.1219 35.6992 23.013C35.7435 22.7994 35.8885 22.356 36.3074 22.2149C36.5772 22.1222 36.843 22.1061 37.0967 22.094C37.5075 22.0698 37.9344 22.0456 38.3251 21.715C38.7681 21.3442 38.9654 21.1789 39.1386 21.0459C39.2635 21.1467 39.4165 21.2313 39.6058 21.3079C39.1024 21.5699 38.603 21.9408 38.3492 22.2552C38.164 22.4809 37.9787 22.493 37.58 22.493C37.4189 22.493 37.2337 22.493 37.0323 22.5212C36.4846 22.5898 36.2751 23.0614 36.2026 23.3073L36.1986 23.3113Z" fill="#FF5C7C"/>
<path d="M31.3853 26.8788C31.1678 26.8143 30.9543 26.786 30.7812 26.7619C30.3542 26.7014 30.0441 26.6571 29.8186 26.3305C29.9837 26.2338 30.1368 26.125 30.2777 25.996C30.608 26.4071 31.055 26.4676 31.4819 26.5281C31.8202 26.5764 32.1666 26.6248 32.4767 26.8505C32.1182 26.8626 31.7558 26.8707 31.3812 26.8788H31.3853Z" fill="#FF5C7C"/>
<path d="M36.3876 26.6329C36.1218 26.5402 35.864 26.4878 35.6264 26.4757C35.6023 26.4757 35.5741 26.4757 35.5499 26.4757C35.4734 26.4757 35.3928 26.4797 35.3083 26.4918C35.1673 26.4515 35.0304 26.4152 34.8934 26.3789C34.3981 26.25 33.9309 26.125 33.5322 25.7783C33.0972 25.4034 32.63 25.3389 32.2152 25.2785C31.748 25.214 31.4057 25.1656 31.1802 24.7262C31.305 24.4965 31.4661 24.2949 31.6554 24.1256C31.9897 24.7907 32.5213 24.8633 33.0368 24.9358C33.4073 24.9882 33.7899 25.0407 34.1202 25.3269C34.5994 25.742 35.1391 25.8831 35.6627 26.0202C36.1178 26.1411 36.5849 26.262 37.0441 26.5765C36.8266 26.5966 36.6091 26.6127 36.3836 26.6329H36.3876Z" fill="#FF5C7C"/>
<path d="M14.4305 25.4639C14.1929 25.4074 13.9633 25.351 13.7458 25.2946C14.2493 24.6214 14.9017 24.2546 15.5944 24.2546C15.7032 24.2546 15.8119 24.2626 15.9166 24.2828C16.0535 24.307 16.1784 24.3271 16.2992 24.3513C16.7543 24.4319 17.0805 24.4884 17.4068 24.4884C17.6041 24.4884 17.7813 24.4682 17.9746 24.4239C18.5183 24.2949 19.1667 23.9643 20.2461 23.3557C20.8703 23.005 21.5147 22.8276 22.1712 22.8276C23.5123 22.8276 24.9178 23.5451 26.4644 25.0205C26.2509 25.1414 26.0536 25.2785 25.8804 25.4316C24.8695 24.6093 23.8748 24.0933 22.9283 23.8958C22.6303 23.8354 22.3323 23.8031 22.0423 23.8031C21.3093 23.8031 20.5884 24.0006 19.9037 24.3836C18.4498 25.2019 17.8981 25.4599 17.2779 25.4599C16.9879 25.4599 16.6818 25.4075 16.2589 25.3309C16.1381 25.3107 16.0133 25.2865 15.8723 25.2623C15.7394 25.2381 15.6065 25.2301 15.4736 25.2301C15.1192 25.2301 14.7648 25.3107 14.4305 25.4679V25.4639Z" fill="#FF5C7C"/>
<path d="M33.2222 26.8264C33.0893 26.7538 32.9725 26.6732 32.8678 26.5805C32.4328 26.2056 31.9656 26.1411 31.5508 26.0806C31.1481 26.0242 30.8259 25.9799 30.6003 25.6654C30.7212 25.5203 30.8339 25.3591 30.9346 25.1858C31.2649 25.605 31.7159 25.6695 32.1509 25.7299C32.5214 25.7824 32.904 25.8348 33.2343 26.121C33.6209 26.4555 34.0558 26.6168 34.4505 26.7256C34.4264 26.7377 34.3458 26.7699 34.3458 26.7699C33.9793 26.7901 33.6088 26.8062 33.2262 26.8224L33.2222 26.8264Z" fill="#FF5C7C"/>
<path d="M21.9697 20.7879C22.01 20.3042 22.2678 18.9377 23.8022 18.4983C23.8102 18.4983 23.9673 18.4499 24.213 18.4499C24.5432 18.4499 25.0507 18.5306 25.5863 18.9175C26.1099 19.2924 26.9154 19.5182 27.745 19.5182C28.035 19.5182 28.3088 19.4899 28.5666 19.4375C29.2875 19.2844 29.8272 18.9337 30.1252 18.4298C30.4112 17.942 30.9468 17.6034 31.5952 17.4986C31.7402 17.4744 31.8852 17.4623 32.0342 17.4623C32.8155 17.4623 33.6089 17.7848 34.2694 18.3653C34.3499 18.4338 34.4265 18.5023 34.499 18.5628C33.7458 18.3411 33.0652 18.2323 32.4772 18.2323C31.0878 18.2323 30.5118 18.853 30.2662 19.1191L30.2219 19.1675C30.1413 19.2481 30.0688 19.3448 29.9963 19.4456C29.7265 19.8044 29.3922 20.2518 28.4981 20.3365C28.4055 20.3445 28.3088 20.3485 28.2122 20.3485C27.1409 20.3485 26.1824 19.7963 26.0052 19.6875L25.9931 19.6794C25.8038 19.5625 25.3044 19.2561 24.6117 19.2561C24.3781 19.2561 24.1445 19.2924 23.9109 19.3609C23.1941 19.5746 22.6624 20.1067 22.3926 20.4332L22.3443 20.4937C22.308 20.542 22.2758 20.5823 22.2516 20.6146C22.2114 20.667 22.1671 20.7275 22.1308 20.7839C22.0785 20.7839 22.0261 20.7839 21.9778 20.7839L21.9697 20.7879Z" fill="#FF5C7C"/>
<path d="M10.5196 29.6037C10.5437 29.1684 10.5759 28.6927 10.6122 28.205C9.77852 26.9554 7.44263 24.3392 2.2795 23.8112C2.2795 23.8112 3.46759 27.4512 1.58276 29.5151C1.58276 29.5151 5.69071 28.2332 10.5155 29.6037H10.5196Z" fill="#324253"/>
<path d="M10.4914 30.2044C8.84824 30.0754 4.63558 30.1358 0.737061 33.4937C0.737061 33.4937 4.06369 34.7594 4.50268 37.8552C4.50268 37.8552 6.67747 33.663 10.4471 31.5306C10.4471 31.4016 10.4632 30.8977 10.4914 30.2084V30.2044Z" fill="#324253"/>
<path d="M19.4682 31.0791C19.4682 31.0791 22.1101 32.9374 25.1387 33.6227C25.1387 33.6227 23.6929 35.8558 20.9986 34.6667C20.9986 34.6667 18.6023 33.5582 19.4682 31.0791Z" fill="#010101"/>
<path d="M39.2387 31.0791C39.2387 31.0791 36.5967 32.9374 33.5681 33.6227C33.5681 33.6227 35.014 35.8558 37.7083 34.6667C37.7083 34.6667 40.1046 33.5582 39.2387 31.0791Z" fill="#010101"/>
<path d="M60.678 13.5113H65.272C66.2568 13.5637 66.8592 13.7839 67.0688 14.1771C67.2783 14.5703 67.3673 14.9898 67.3254 15.4354C67.2835 15.8811 66.9378 16.4526 66.2725 17.1394C67.3045 17.1027 67.8754 17.454 67.9959 18.188V21.2342C67.9435 21.7795 67.755 22.2041 67.4354 22.503C67.1159 22.8018 66.723 23.0063 66.2621 23.1059C65.183 23.3471 64.062 23.2422 62.9043 22.7861L63.6429 21.0349C64.6853 21.3495 65.3296 21.4229 65.5916 21.2604C65.8535 21.0979 65.953 20.2957 65.9059 18.8486L63.1243 18.8644V20.584C62.8624 22.3667 61.9771 23.1741 60.458 23.0063V21.2394C60.9138 21.2394 61.1076 20.8777 61.0342 20.1332V18.922H60.4318V17.1394L61.1914 17.1551V15.4984H60.4109L60.678 13.5165V13.5113ZM63.1138 15.4931V17.0608L64.062 16.8668C64.7272 16.526 65.0311 16.0698 64.9734 15.4984H63.1086L63.1138 15.4931Z" fill="#232C38"/>
<path d="M69.1999 13.506H75.5434C75.9887 13.5584 76.2977 13.8311 76.4654 14.3239L76.4497 17.1342C76.3082 17.779 76.0987 18.2142 75.8315 18.4397C75.5644 18.6651 75.0825 18.9168 74.391 19.2051L74.9725 20.086C75.402 20.7308 76.0149 21.0979 76.8059 21.1975L76.6382 23.3471L75.4544 23.1374C74.6844 22.9906 73.8672 22.2251 73.0081 20.8462L72.5419 20.0073L71.3842 20.5264V23.022L69.3151 23.0378V21.1817L68.5032 19.5407L69.2994 19.0636L69.3151 16.1223L70.3261 15.5927H68.7337L69.1999 13.5165V13.506ZM71.3842 15.5875V18.2771L73.5843 17.454C74.1186 17.2652 74.3858 16.9664 74.3858 16.5522V15.5875H71.3842Z" fill="#232C38"/>
<path d="M81.3589 12.8035L83.1714 13.4536L82.9566 14.1247H85.8691L85.5653 16.1904H83.9728L86.4977 22.6183L84.549 23.2527L81.9561 16.6833L79.0645 23.1951L77.0845 22.6236L79.9393 16.1695H77.8545L78.0169 14.1247H80.7722L81.3537 12.8035H81.3589ZM82.2966 19.9339L83.4228 21.1084L81.338 23.0902L80.2065 21.9315L82.2966 19.9339Z" fill="#232C38"/>
<path d="M87.2257 13.506H91.2382L90.9449 15.5193H90.2953V21.0716H91.1178L91.0025 23.022H86.99L87.189 21.0612H88.0481L88.0638 16.0174L88.991 15.5193H87.0109L87.2257 13.506Z" fill="#232C38"/>
<path d="M92.1183 13.527H94.2502V15.037L94.4912 14.4498C95.4289 14.6857 96.1203 14.9531 96.5708 15.2519C97.0213 15.5508 97.4823 16.0332 97.9642 16.7043L98.0689 16.9821V13.5427H100.18V21.381C100.217 21.7375 100.049 22.1203 99.6928 22.524C99.3366 22.9277 98.5928 23.1007 97.4718 23.043V21.0664C97.9642 21.0297 98.1685 20.7309 98.0899 20.1646C98.0899 19.85 98.0218 19.504 97.8751 19.1318C97.7285 18.7595 97.257 18.2667 96.4765 17.648C95.696 17.0293 94.9469 16.6309 94.245 16.4421V23.0378H92.1025L92.1183 13.5218V13.527Z" fill="#232C38"/>
<path d="M105.539 13.5113H110.133C111.117 13.5637 111.72 13.7839 111.929 14.1771C112.139 14.5703 112.228 14.9898 112.186 15.4354C112.144 15.8811 111.798 16.4526 111.133 17.1394C112.165 17.1027 112.736 17.454 112.856 18.188V21.2342C112.804 21.7795 112.615 22.2041 112.296 22.503C111.976 22.8018 111.584 23.0063 111.123 23.1059C110.043 23.3471 108.922 23.2422 107.765 22.7861L108.503 21.0349C109.546 21.3495 110.19 21.4229 110.452 21.2604C110.714 21.0979 110.814 20.2957 110.766 18.8486L107.985 18.8644V20.584C107.723 22.3667 106.838 23.1741 105.319 23.0063V21.2394C105.774 21.2394 105.968 20.8777 105.895 20.1332V18.922H105.308V17.1394L106.068 17.1551V15.4984H105.287L105.554 13.5165L105.539 13.5113ZM107.974 15.4931V17.0608L108.922 16.8668C109.588 16.526 109.892 16.0698 109.834 15.4984H107.969L107.974 15.4931Z" fill="#232C38"/>
<path d="M115.78 13.485V14.4026L116.356 13.485H121.212C121.809 13.6423 122.092 14.4445 122.061 15.8863V22.1832C121.945 22.697 121.484 22.9644 120.683 22.9853H115.067C114.235 23.0168 113.747 22.6708 113.616 21.9525V13.9097L115.78 13.485ZM115.78 15.5455V20.9248H119.887V15.5455H115.78Z" fill="#232C38"/>
<path d="M124.957 13.4851V14.4026L125.533 13.4851H130.389C130.986 13.6424 131.269 14.4445 131.238 15.8864V22.1832C131.122 22.697 130.661 22.9644 129.86 22.9854H124.244C123.412 23.0168 122.924 22.6708 122.793 21.9525V13.9098L124.957 13.4851ZM124.957 15.5456V20.9249H129.064V15.5456H124.957Z" fill="#232C38"/>
<path d="M132.317 13.4903H137.781C138.373 13.6214 138.76 13.9359 138.933 14.4288C139.106 14.9216 139.195 15.3463 139.195 15.7133L137.268 16.0751C137.268 15.6347 136.833 15.4512 135.963 15.5141H134.449L139.08 19.8186C139.426 20.238 139.468 20.9458 139.211 21.9367C138.954 22.5711 138.326 22.9277 137.32 23.0116H133.601C133.171 22.87 132.826 22.6078 132.579 22.2251C132.333 21.8424 132.134 21.3653 131.998 20.7938L134.015 20.1436C134.067 20.6732 134.292 20.9301 134.69 20.9144H136.655C136.953 20.8567 136.906 20.6522 136.508 20.3062L132.202 16.311L133.26 15.5141H131.904L132.317 13.4903Z" fill="#232C38"/>
<path d="M140.316 13.506H147L146.727 15.6032H144.349V20.1384C144.265 20.8409 144.517 21.2604 145.098 21.3915L144.559 23.3628C143.888 23.3838 143.317 23.1741 142.856 22.7389C142.395 22.3037 142.154 21.7323 142.139 21.0192V16.0226L143.087 15.5875H140.091L140.311 13.506H140.316Z" fill="#232C38"/>
<path d="M60.4476 27.6306H65.4187L65.403 31.1486L65.9844 29.7802C68.1688 30.336 69.7822 30.9547 70.8298 31.6467C71.8775 32.3336 72.9618 33.4608 74.0776 35.0232L74.3185 35.6733L74.3028 27.6621H79.2425V45.9286C79.3211 46.7623 78.944 47.6536 78.1006 48.5921C77.2572 49.5305 75.5391 49.9343 72.9304 49.8032V45.1946C74.0723 45.1055 74.5543 44.4082 74.3709 43.0922C74.3814 42.3529 74.2138 41.556 73.8628 40.6909C73.5118 39.8258 72.4275 38.6776 70.6046 37.241C68.7817 35.8044 67.0478 34.8659 65.3977 34.4308V49.7979H60.4109L60.4476 27.6254V27.6306Z" fill="#232C38"/>
<path d="M81.6783 27.5834H91.0234L90.3372 32.2707H88.8286V45.2103H90.751L90.4787 49.7508H81.1335L81.5945 45.1736L83.6008 45.1894L83.6374 33.4189L85.8009 32.2654H81.1859L81.6836 27.5782L81.6783 27.5834Z" fill="#232C38"/>
<path d="M93.0817 27.6306H98.0528L98.0371 31.1486L98.6186 29.7802C100.803 30.336 102.416 30.9547 103.464 31.6467C104.512 32.3388 105.596 33.4608 106.712 35.0232L106.953 35.6733L106.937 27.6621H111.877V45.9286C111.955 46.7623 111.578 47.6536 110.735 48.5921C109.891 49.5305 108.173 49.9343 105.565 49.8032V45.1946C106.706 45.1055 107.188 44.4082 107.005 43.0922C107.016 42.3529 106.848 41.556 106.497 40.6909C106.146 39.8258 105.062 38.6776 103.239 37.241C101.416 35.8044 99.6819 34.8659 98.0319 34.4308V49.7979H93.0398L93.0765 27.6254L93.0817 27.6306Z" fill="#232C38"/>
<path d="M115.753 27.6306H123.815V44.6441C123.757 46.1226 123.569 47.3967 123.239 48.4767C122.914 49.5568 121.966 50.663 120.4 51.7955C118.833 52.928 116.78 53.6201 114.245 53.8717L113.831 48.9853C115.434 48.8542 116.691 48.2355 117.602 47.1188C118.519 46.0073 118.896 41.4354 118.734 33.4031L121.065 32.2654H114.58L115.748 27.6254L115.753 27.6306Z" fill="#232C38"/>
<path d="M135.015 25.9529L139.232 27.4681L138.734 29.0305H145.523L144.821 33.8488L141.117 33.8645L147 48.8228L142.453 50.3065L136.419 35.0023L129.677 50.1755L125.062 48.8385L131.715 33.7964L126.859 33.7807L127.236 29.0253H133.648L135.004 25.9476L135.015 25.9529ZM137.194 42.5626L139.818 45.2995L134.962 49.9238L132.322 47.2237L137.194 42.5679V42.5626Z" fill="#232C38"/>
</g>
<defs>
<clipPath id="clip0_542_158">
<rect width="147" height="52" fill="white"/>
</clipPath>
</defs>
</svg>
